<?xml version="1.0" encoding="UTF-8" ?>
<!DOCTYPE svg PUBLIC "-//W3C//DTD SVG 1.1//EN" "http://www.w3.org/Graphics/SVG/1.1/DTD/svg11.dtd">
<svg width="210pt" height="268pt" viewBox="0 0 1961 2500" version="1.1" xmlns="http://www.w3.org/2000/svg">
<g id="#4688f1ff">
<path fill="#4688f1" opacity="1.00" d=" M 42.99 270.90 C 355.36 180.76 667.68 90.43 980.07 0.41 C 1004.16 6.81 1028.05 14.18 1052.06 20.96 C 1355.04 108.47 1658.03 195.93 1961.00 283.48 L 1961.00 944.87 C 1959.66 990.29 1957.55 1035.70 1953.13 1080.94 C 1939.29 1225.61 1909.86 1368.82 1865.17 1507.12 C 1831.98 1609.59 1790.17 1709.32 1739.21 1804.24 C 1695.31 1885.73 1644.76 1963.70 1587.51 2036.46 C 1496.11 2152.80 1387.47 2255.57 1266.16 2340.27 C 1214.26 2376.84 1159.78 2409.65 1103.97 2439.87 C 1086.09 2449.05 1068.44 2458.67 1050.23 2467.19 C 1027.27 2478.51 1003.96 2489.11 980.55 2499.46 C 980.58 2499.60 980.64 2499.87 980.67 2500.00 L 980.33 2500.00 C 980.36 2499.87 980.41 2499.62 980.44 2499.49 C 859.39 2447.12 744.32 2380.62 639.64 2300.31 C 545.93 2228.40 460.76 2145.37 386.52 2053.50 C 289.45 1933.94 211.01 1799.69 151.23 1657.88 C 116.84 1576.79 88.70 1493.10 65.97 1408.03 C 42.23 1318.64 24.57 1227.64 13.26 1135.84 C 5.79 1075.08 1.08 1013.96 0.00 952.75 L 0.00 283.43 C 14.27 279.04 28.67 275.11 42.99 270.90 M 821.95 468.79 C 782.47 479.42 743.89 493.75 707.58 512.62 C 691.97 520.38 676.73 528.87 661.98 538.15 C 630.06 558.42 599.72 581.27 572.17 607.19 C 552.97 624.69 535.50 643.98 518.78 663.84 C 497.91 689.19 479.16 716.30 462.73 744.73 C 428.38 804.00 404.83 869.44 393.11 936.92 C 387.44 971.29 383.87 1006.17 385.01 1041.04 C 385.03 1092.28 391.87 1143.51 405.25 1192.97 C 426.27 1270.25 463.28 1343.13 513.39 1405.61 C 517.22 1410.26 520.76 1415.40 525.36 1419.24 C 525.94 1421.88 528.75 1423.55 530.29 1425.76 C 603.21 1509.48 700.39 1571.77 806.98 1602.91 C 898.73 1630.22 997.18 1634.12 1090.96 1615.21 C 1134.89 1606.17 1177.80 1592.22 1218.59 1573.57 C 1291.12 1540.48 1356.69 1492.34 1410.14 1433.20 C 1414.00 1428.51 1418.66 1424.32 1421.94 1419.25 C 1423.38 1418.27 1424.51 1416.94 1425.56 1415.58 C 1449.95 1386.16 1471.79 1354.57 1490.10 1321.01 C 1533.45 1242.42 1558.11 1153.69 1561.91 1064.03 C 1562.04 1052.69 1563.25 1041.34 1562.09 1030.03 C 1561.47 1005.71 1560.03 981.38 1556.54 957.29 C 1550.58 911.07 1538.46 865.74 1521.54 822.35 C 1507.12 785.43 1488.59 750.19 1467.16 716.87 C 1425.88 653.74 1372.59 598.47 1310.76 555.23 C 1240.10 505.45 1158.15 471.86 1072.94 457.44 C 989.73 443.57 903.54 447.19 821.95 468.79 Z" />
</g>
<g id="#3566b8ff">
<path fill="#3566b8" opacity="1.00" d=" M 821.95 468.79 C 903.54 447.19 989.73 443.57 1072.94 457.44 C 1158.15 471.86 1240.10 505.45 1310.76 555.23 C 1372.59 598.47 1425.88 653.74 1467.16 716.87 C 1488.59 750.19 1507.12 785.43 1521.54 822.35 C 1538.46 865.74 1550.58 911.07 1556.54 957.29 C 1560.03 981.38 1561.47 1005.71 1562.09 1030.03 C 1563.25 1041.34 1562.04 1052.69 1561.91 1064.03 C 1558.11 1153.69 1533.45 1242.42 1490.10 1321.01 C 1471.79 1354.57 1449.95 1386.16 1425.56 1415.58 C 1424.51 1416.94 1423.38 1418.27 1421.94 1419.25 C 1419.35 1399.02 1411.81 1379.56 1400.29 1362.75 C 1381.60 1335.31 1355.35 1313.97 1327.58 1296.23 C 1296.60 1276.65 1263.09 1261.37 1228.86 1248.44 C 1184.43 1232.02 1138.55 1219.56 1091.98 1210.89 C 1050.12 1203.21 1007.61 1197.95 964.97 1198.69 C 917.84 1199.80 871.06 1207.05 825.05 1217.04 C 781.39 1226.96 738.28 1239.75 696.85 1256.82 C 663.65 1270.60 631.22 1286.81 602.00 1307.89 C 578.57 1324.76 556.85 1344.93 541.96 1369.90 C 533.09 1384.92 526.66 1401.74 525.36 1419.24 C 520.76 1415.40 517.22 1410.26 513.39 1405.61 C 463.28 1343.13 426.27 1270.25 405.25 1192.97 C 391.87 1143.51 385.03 1092.28 385.01 1041.04 C 383.87 1006.17 387.44 971.29 393.11 936.92 C 404.83 869.44 428.38 804.00 462.73 744.73 C 479.16 716.30 497.91 689.19 518.78 663.84 C 535.50 643.98 552.97 624.69 572.17 607.19 C 599.72 581.27 630.06 558.42 661.98 538.15 C 676.73 528.87 691.97 520.38 707.58 512.62 C 743.89 493.75 782.47 479.42 821.95 468.79 M 964.45 607.57 C 907.30 609.54 851.49 634.71 811.91 675.94 C 774.81 714.10 751.98 765.81 749.17 819.00 C 748.21 843.57 750.53 868.39 757.15 892.12 C 771.24 943.57 804.56 989.39 848.98 1018.88 C 884.84 1042.90 927.79 1056.20 970.96 1056.45 C 1014.56 1057.08 1058.20 1044.45 1094.82 1020.80 C 1125.27 1001.24 1150.82 974.16 1168.73 942.73 C 1188.59 907.75 1199.11 867.26 1197.71 827.00 C 1196.88 788.38 1186.04 749.96 1166.12 716.83 C 1146.47 683.88 1118.25 656.08 1084.95 637.02 C 1048.62 616.10 1006.34 605.75 964.45 607.57 Z" />
</g>
<g id="#ffffffff">
<path fill="#ffffff" opacity="1.00" d=" M 964.45 607.57 C 1006.34 605.75 1048.62 616.10 1084.95 637.02 C 1118.25 656.08 1146.47 683.88 1166.12 716.83 C 1186.04 749.96 1196.88 788.38 1197.71 827.00 C 1199.11 867.26 1188.59 907.75 1168.73 942.73 C 1150.82 974.16 1125.27 1001.24 1094.82 1020.80 C 1058.20 1044.45 1014.56 1057.08 970.96 1056.45 C 927.79 1056.20 884.84 1042.90 848.98 1018.88 C 804.56 989.39 771.24 943.57 757.15 892.12 C 750.53 868.39 748.21 843.57 749.17 819.00 C 751.98 765.81 774.81 714.10 811.91 675.94 C 851.49 634.71 907.30 609.54 964.45 607.57 Z" />
<path fill="#ffffff" opacity="1.00" d=" M 825.05 1217.04 C 871.06 1207.05 917.84 1199.80 964.97 1198.69 C 1007.61 1197.95 1050.12 1203.21 1091.98 1210.89 C 1138.55 1219.56 1184.43 1232.02 1228.86 1248.44 C 1263.09 1261.37 1296.60 1276.65 1327.58 1296.23 C 1355.35 1313.97 1381.60 1335.31 1400.29 1362.75 C 1411.81 1379.56 1419.35 1399.02 1421.94 1419.25 C 1418.66 1424.32 1414.00 1428.51 1410.14 1433.20 C 1356.69 1492.34 1291.12 1540.48 1218.59 1573.57 C 1177.80 1592.22 1134.89 1606.17 1090.96 1615.21 C 997.18 1634.12 898.73 1630.22 806.98 1602.91 C 700.39 1571.77 603.21 1509.48 530.29 1425.76 C 528.75 1423.55 525.94 1421.88 525.36 1419.24 C 526.66 1401.74 533.09 1384.92 541.96 1369.90 C 556.85 1344.93 578.57 1324.76 602.00 1307.89 C 631.22 1286.81 663.65 1270.60 696.85 1256.82 C 738.28 1239.75 781.39 1226.96 825.05 1217.04 Z" />
</g>
</svg>
